/* XPM */
static char *_0b265c8592249f0feee40e84702132be9f9rvIDUjvKv7Df[] = {
/* columns rows colors chars-per-pixel */
"64 64 153 2 ",
"   c #141311",
".  c #151412",
"X  c #161415",
"o  c #171614",
"O  c #171516",
"+  c #181715",
"@  c #181617",
"#  c #191816",
"$  c #1A1917",
"%  c #191718",
"&  c #1A1819",
"*  c #1B1A18",
"=  c #1B191A",
"-  c #1C1B19",
";  c #1C1A1B",
":  c #1D1C1A",
">  c #1E1D1B",
",  c #1D1B1C",
"<  c #1E1C1D",
"1  c #1F1E1C",
"2  c #1F1D1E",
"3  c #201F1D",
"4  c #201E1F",
"5  c #21201E",
"6  c #22211F",
"7  c #211F20",
"8  c #222021",
"9  c #232220",
"0  c #232122",
"q  c #242321",
"w  c #242223",
"e  c #252422",
"r  c #262523",
"t  c #252324",
"y  c #262425",
"u  c #272624",
"i  c #272526",
"p  c #282725",
"a  c #282627",
"s  c #292826",
"d  c #2A2927",
"f  c #292728",
"g  c #2A2829",
"h  c #2B2A28",
"j  c #2B292A",
"k  c #2C2B29",
"l  c #2C2A2B",
"z  c #2D2C2A",
"x  c #2E2D2B",
"c  c #2D2B2C",
"v  c #2E2C2D",
"b  c #2F2E2C",
"n  c #2F2D2E",
"m  c #302F2D",
"M  c #302E2F",
"N  c #31302E",
"B  c #32312F",
"V  c #312F30",
"C  c #323031",
"Z  c #333230",
"A  c #333132",
"S  c #343331",
"D  c #343233",
"F  c #353432",
"G  c #363533",
"H  c #353334",
"J  c #363435",
"K  c #373634",
"L  c #373536",
"P  c #383735",
"I  c #383637",
"U  c #393836",
"Y  c #3A3937",
"T  c #393738",
"R  c #3A3839",
"E  c #3B3A38",
"W  c #3B393A",
"Q  c #3C3B39",
"!  c #3C3A3B",
"~  c #3D3C3A",
"^  c #3E3D3B",
"/  c #3D3B3C",
"(  c #3E3C3D",
")  c #3F3E3C",
"_  c #3F3D3E",
"`  c #403F3D",
"'  c #403E3F",
"]  c #41403E",
"[  c #42413F",
"{  c #413F40",
"}  c #424041",
"|  c #434240",
" . c #434142",
".. c #444341",
"X. c #444243",
"o. c #454442",
"O. c #464543",
"+. c #454344",
"@. c #464445",
"#. c #474644",
"$. c #474546",
"%. c #484745",
"&. c #484647",
"*. c #494846",
"=. c #4A4947",
"-. c #494748",
";. c #4A4849",
":. c #4B4A48",
">. c #4B494A",
",. c #4C4B49",
"<. c #4C4A4B",
"1. c #4D4C4A",
"2. c #4E4D4B",
"3. c #4D4B4C",
"4. c #4E4C4D",
"5. c #4F4E4C",
"6. c #4F4D4E",
"7. c #504F4D",
"8. c #504E4F",
"9. c #51504E",
"0. c #52514F",
"q. c #514F50",
"w. c #525051",
"e. c #535250",
"r. c #535152",
"t. c #545351",
"y. c #545253",
"u. c #555452",
"i. c #565553",
"p. c #555354",
"a. c #565455",
"s. c #575654",
"d. c #575556",
"f. c #585755",
"g. c #585657",
"h. c #595856",
"j. c #5A5957",
"k. c #595758",
"l. c #5A5859",
"z. c #5B5A58",
"x. c #5B595A",
"c. c #5C5B59",
"v. c #5C5A5B",
"b. c #5D5C5A",
"n. c #5E5D5B",
"m. c #5D5B5C",
"M. c #5E5C5D",
"N. c #5F5E5C",
"B. c #5F5D5E",
"V. c #605F5D",
"C. c #626061",
"Z. c #636260",
"A. c #656462",
/* pixels */
",.:.1.S S x U G Q ] o.%.=.6 G z.9.i.9.o.o.~ ] U ~ U E T H 2 V d.3.t.:.P K K S K U U o.` ] 6 m s.1.7.=.U B G G B Z E L ' V , H q.",
"1.i.9.) h G E K Q | ..:.%.~ 6 G i.i.i.o.] o.=.U ] ] V / L v 2 V 7.t.e.| Z K Q S U ..Q ..| G q G 9.i.e.] x B ~ B E A L L W v 7 A ",
"1 ~ e.i.K K G G ~ ) ,.] ) e...u 6 o.j.i.o.] ~ o.) Q Q H H ! V % - ) e.5.| K m K K E ] Q P o.Q $ 4 ] i.,.~ B m G H v T V v / n X ",
"s + r | ] x m ~ ~ ~ B K ` Q 1.9.~ 4 q %.] ] ] ] ) P H v T n H / b . u ..) Z P Q Q S B K Q K Q #.B + p #.U s B U n H v V H v H T ",
"S k q 1 r Z U B h Z ) V.) ) #.] | %.S u h ) ) ~ k Z { p.T H H A Z K p * p Q ) Z b x ] b.~ ) ` | ~ U u > r G B B i v { p./ v T V ",
"Z B h S k x s Z ~ t.i.Q G =.| =.1...` ..~ ) U m E e.6.E V H V H S Z P P m Z P b ~ s.9.) K o...o.o.U K U B s x x / q.p.T V L V T ",
"S G x m G G B E 9.#.:.B ~ ` o.#.] 1.=...:.~ G ` e.:.-.T W n H V m P K K ) Q K Q t.5.1.U | ) %.] ] o.U G ~ G x ~ d.-.-.L v A H T ",
"P K U B ~ p S 9.%.1.G G ,.%...o.%.=.,.#.=.S P 9.#.,.L V H { A H K S P ) E k P t.:.5.E Z %.1.| #.] o.o.] U s G i.&.q.L v H T / L ",
") G U G B x 9.o.,.Q S | =.=.,.o.%.] e.:.E b 1.1.5.E V { ! T T H S Z P ) h B 9.5.5.| B o.=.=.=.=.,.Q %...m k t.%.6.! v T L ! T T ",
"P o.P G p =.7.=.E G ` Q :.7.1.9.1.7.:.=.x 1.e.o.) H / L W ' L H S P Z S r ,.j.=.` Z ~ ] | ,.9.=...,.) Q h :.7.#./ V H V T / ! { ",
"Q ] U s ~ =.~ P k P | ` o.=.o.9.t.9.5.P ~ ,.o.P m ` X.{ ' { A / P E ) Z ] 1.#.G B Q ] ..) #...:.,.7...m ` ,.| K i H A L H H n / ",
"Q U | 6 | Z B s ~ ] K x | ) %.e.,.1.7.1 ..K m G | :.T f _ / T { Q | Q - ~ K x U ] i.U s | ` ] 9.5.#.#.1 | Z k u V / f j T v H T ",
"~ ` ] 6 q k G ` ) S ~ q t.9.7.` 7.t.:.4 b ` ) 5.#.` / 9 q.q.X.V K | K 4 s ~ K %.#.=.` 6 i.t.=.] 5.,.| 1 u m Z S V n V t q.&.X.n ",
"U U ` ) ~ Q G P | P ` 1 b j.9.9.%.| 7.5.%.7.,...,...X.7 n B.q.q.` K ) ` ~ ..%...1.| #.s k z.f.e.| %.,.:.| ) K S T A A 7 n k.q.3.",
"t.o.P P o.U Q ~ G Q ] G > o.=.7.s.` ..%.:.| :.#.Q ` { T % -.3.p.t.Q Q ` o.E o.] | o.1.o.> #.t.t.s.:.%...#.P Q E V A H V % X.-.q.",
"%.9.` E ] U G G U U U U x q i.%.5.t.%...7.,.#.#.#.{ { { f w g.>.7.f.E ) ` %.] | ] =.o.%.Z r i.,.e.s.#...%...` V V n n V i t 6.$.",
":.1.,.E Q Q ~ K P E E Q ] 1 G t.1.7.7...o.| =.o.` | ) / { = A k.1.9.1.P U ` o.] ~ o.=.=.=.6 G i.5.e.7.| =.~ Q U K v V A A , n p.",
":.5.t.o.U ` | G Q ~ U ~ Q P 1 G 9.5.9.=.] =.7.] #.#.' { ' L , V 9.1.9.=.~ U o.] ] o.o.=.o.U 6 B t.s.e.#.] o.| K K H n V T f 7 n ",
"9 ) 9.5.] ~ Q ` P K ] K Z #.U > 6 ] s.e.| ` | ,.:.`  .H V X.T 2 6 ] i.=.~ ] ] ..] ] 1.o.] 9.` 6 4 ..s.t.=.~ U ) T H V i t T H = ",
"x o u 1...~ ` ] ] U B K ~ S | =.K - u 1.#.o.o.] X.) A / { H / { x o r 1.o.Q ~ o.o.` B U ] U o.1.U - q %.] ] ` ~ A A f H T V l / ",
"P Q r * p %.=.o.P K ) V.~ E | ] %.7.G 6 r | :.,.) E ) M.W H _ _ U ~ r $ s ] [ o.G U ~ b.~ ~ o.] E o.S q p ....E H V X.q.L v V L ",
"Z K ~ ] U ` ~ G ] i.i.U K =.| %.=.o.=.1.o.=.] B ) s.k.{ T X.T W G U ~ ~ B ~ ~ x [ j.j.] G 1.] o.#.] ` ` P | ] B T p.p.! V V n n ",
"S ) E G | ) E ..s.,.9.K ] ..#.o.` 1.1.=.9...Q o.f.5.q.H ! T / { U E G B ] G B o.0.=.1.G ` ] ] ~ E | | ~ | ) ~ ] p.6.X.V f f V H ",
"m Z U Q ] m U j.1.s.Q G o...] ] o.| #.=.1.B U f.,.p.W V { T H H G G U G U s U i.1.i.G B ] ] ] ~ ) P ~ ) ) x Q i.6.3./ v H v v V ",
"b G Z ~ S S t.5.e.#.m %.o.o.o.o.` ] o.1.Q B i.1.t.) H ) / / H H G m B U s B 9.1.7.] x ~ ~ U ~ ~ E U ~ E Z Z e.7.y.' v V H n f v ",
"b B K G s 1.j.9.~ U ] o.#.=.#...%.%.....p 9.i.9.] S / T / { T / G ] B x p =.9.9.~ G U U E ] ] ` K ` U ~ u ,.s.:._ n V f A H V V ",
"b x G S ~ t.] P Z ] :.,.o.#...=.=.| | K ] i.| P m K )  .! / H ! G ~ G h o.1.] G x G ~ ] U ] U ] ] ` P B E 7.%.S v V T T V v n v ",
"Z K b 6 ] K Z S o.1.~ b ] E ..%.o.=.U > o.G G S { #.V v _ H T / ~ G G 4 ~ G x N ~ ] B x ] U ] o.#.] ` 4 #.E m k ' { V v / v H n ",
"k S B > x x ~ ] ] ..| q z.9.o.S U =.Q r x Z P | ) E V 7 g.q.X.V G U G r 6 N B ] ] ~ U 6 i.9.o.U %.=.` 4 9 m S | / W T t k.-.X.v ",
"U p B Z x ` ~ ] o.%.o.6 U Z.e.t.| P | | K o.` ..| ) T * H C.6.q.Q P P P P P U ) ] ] ~ 6 G b.1.i.] E ] o.K ) Q K ' / T % A k.6.6.",
"i.E x G B ] E ~ U ..] E 1 1.i.z.c.] ) ] | o.o.] P ) { H , q.q.g.i.] G B o.U Q ~ G ] ] U > =.9.j.b.[ U ] ` E ) E V W / V , -.q.p.",
"1.z.Z s U K ~ U ) ) ` 1.h s b.=.7.b.~ ~ ] ~ ] ~ ` S / ! 7 f v.3.9.c.U P P ~ P U ] ~ ~ o.s r V.=.1.j.` E | ) S T T V T L f i k.&.",
"1.5.,.B B U ~ Q ~ ] o.#.=.1 G j.t.t.e.E Q ~ ] ) U Q Q Q ~ - K f.9.0.9.U P G Q G P ] ~ [ ] - B f.1.i.9.U U G B U B B G B G $ P 9.",
"1.7.f.| B U | U o.%.#.1.7.=.r B t.e.j.=.` =.,.~ #.] E ) ] ~ 4 k 9.9.i.[ G U ~ N ~ ] U ] ] ~ 5 B 0.0.i.] P ~ Q B U G G U B N > G ",
"6 ) i.1.E U U =.| #.i.%.] t.#.h q ..z.i...] | 7...] ,.~ B o.E 1 r o.j.0.] P ~ o.] ] 0.] ~ :.] 6 6 o.b.i.[ ~ G ] U B ~ B x ~ N o ",
"h . s 5.` P Q ,.1.%.U E o...t.s.~ > p ,.#.=.o.=.,.] Z P ~ G ..#.B + 6 1.[ ] ] ] o.] U P o.~ :.:.~ > p o.] ] ~ ] ] ~ N B Q G Q ~ ",
"Q U u $ 9 ` ] o.U ~ o.Z...%.9.=.7.1.G 6 s %.=.,.U P | A.` E ` P ~ ] x > r ] o.%.G K ] b.o.] 9.o.] o.U r k o.[ ] B U ~ c.~ ~ ] U ",
"P B U E B K G B ) z.V.o.U 5.1.t.t.#.#.%.| %.Q m ] f.b.| Z ` ) | [ ~ ~ ] ~ ] ] B ] j.V.] U 1.=.9.9.] %.=.] =.] B ] 0.f.] B ~ G ] ",
"U ~ U b ~ E G ..b.1.7.U :.5.9.5.:.7.1.| =.] P o.b.1.5.S Q ` | Q Q [ ~ P [ U G o.j.1.1.P o.:.=.o.] o.=.o.:.] G ] f.=.9.P P B U Q ",
"U P ) U Q x G j.,.s.~ E 1.,.,.5.5.=.5.,.:.Z P j.,.t.U G | Q E E ] ~ ] ] %.B P i.1.f.P P %.1.=.1.1.] =.1.:.G Q j.9.9.U x U ~ ] U ",
"E U ` ~ G Z 7.5.i.` K =.e.1.1.1.1.,.e.=.] b e.9.e.` P ` | | E E U ] ) ] P N 0.9.i.] G o.o.1.9.=.=.%.o.:.] k j.1.f.~ x ] P ] Q U ",
"E ..P Q 9 ,.j.7.] G ..o.9.e.7.5.1.=.1.=.k 9.i.1.) S ) E ) %.) ` ~ ] Q ~ r i.f.9.~ P ~ ~ o.1.1.9.9.1.=.%.s i.i.9.] B Q B ] ~ ] ] ",
"~ ~ E S ~ 5.| B b K %.=.:.1.=.5.s.,.7.~ K 9...U b P ) | Q ` P ) ~ ~ [ U ~ 9.] G k U ] ] ] o.U 1.9.%.%.U Q j.~ U k U Q P Q G B E ",
"] ~ ~ > ] G b b ~ ..E x | ] =.e.5.7.=.6 | G B x ` ..b k Q S E ) ] o.~ 6 ] B B B ~ o.G x ~ U Q =.=.1.) > ] P N B Q =.s k P B B U ",
"B E E 9 s B Z ) ~ ~ ` > i.t.=.] ,.s.o.* S E ) %.) Q Z 1 t.,.` S U ] G 6 x B U ~ ~ P P 6 9.9.o.U U 9.] 6 x x U ] ] ~ b r 9.:.] N ",
"U B U ` B E ~ U ) ) | > G b.5.i.o.] f.=.:.1.] o.| ) P * m c.,.q.] B ~ ~ G [ Q U ] G U > N V.9.9.[ ~ o.] P Q ] ~ ] U U $ N i.9.=.",
"i.~ G Q ` U ~ U Z E o.U 6 =.9.s.j.] 1.#.#.] | ..E E ) Z * :.,.s.i.Q Q ] ~ ~ Q Q G U ~ G * :.9.0.j.~ ~ ] ] ] ] Q G U ] B - o.:.9.",
":.i.P G ~ ~ G U Q S Q ) s 6 z.=.9.s.` o.=.=.#.U ` Z K K 1 u s.#.1.j.B P ] ~ Q U Q G G U r r s.=.9.j.~ ] ~ ] G U Q Q U U 5 r 9.%.",
":.3.>.L H H T V H V / ! _ 7 H d.1.9.9.` ] | ] U E T K T A % H q.6.6.3./ { / / H L L T W W 4 n v.,.5.5.' / T T T L A T T n 2 V 3.",
">.e.q.! n H / H T / H / W V 7 V s.5.9.=.] ] #.Q { ! T / A v = H 6.q.y.{ H / X.T T { H / T V 2 n e.q.q.{ H ! { A L T n W V f , V ",
"2 / y.q./ T / T T T { ! L &.{ 4 * #.M.7.] o...` { L { H n ! n @ ; { p.q.' ! T / / W T V v W T ; , { k.q./ L H L H V T A n A V X ",
"i % t X.{ H H X./ V V H T L { -.E * 6 %...) ] o.{ ! V n ! v H L f O i -.W H T { L V A H _ V H / V % 7 X./ T L H L n n v T v n L ",
"v f 7 4 4 L T A n v ' v.H L T ! E ) k q p Q E Q n V _ g.W V A f v V 7 , i / T L H n { p.H V H T V T f 7 t T H A f f / d.T V l j ",
"j l f v j f f V ! p.q./ V W / T ) E E P Z P K h / q.p./ n A l V V v n H v v V V ! p.p./ V H V V T V V H V H V j / q.q./ v f l n ",
"f v l f A V H / 6.-.-.H L V ! H P Q P E | m b | k.-.q.T A v v V v H n v ! A V / k.q.-.V H n T T V T L A / H V ' p.3.>.H V t n v ",
"f V V v H f L p.3.q./ n / / L W P Q ) P Q k P s.>.q.A n V H A v j n H H T f L k.>.q.T A T / v L H T T T / v L p.3.3.L l v T n l ",
"n n V v v V 3.3.p.! n { / / { ! P E ..` Z h t.5.p.T V / H T H A V n V T v v p.3.p.{ A _ { T T T L L ! ! A H q.q.p.! V H A H V v ",
"V T v H w 3.d.3./ H / / { X._ ' ` ) ` P 9 e.s.:./ V T H T / H L H V v V 4 q.p.>.{ V ' W ! / / L T { L _ t 3.k.3._ V T v L / L T ",
"T H v l T 3.X.T n ' X.X.-.3./ &.%.| :.S ` t...K v ! ! / ' _ V / W H T n / p.{ T H / -.{ _ { L / / ! T H { 6.X.V l T ! H H A v L ",
"H V H , X.L v V { >.T l {  .{ >.,.,...- ..S Z K / $.n j ' H L { / { T @ ' V V L { q./ f { W H { ' ! T % { L V H ' X.V f T l A H ",
"H T H % w v V -.&.{ { 7 q.p.-.T | ,.| 9 S P Q ..{ / H w y.3.X.V T X.H , j V / X.X.-.X.7 g.6.' H L { ! 7 f H H { X.T W 7 q.&. .j ",
"L n A / V T T / -. .$.t V C.y.p.:.E :...Q %.| | -./ ! 2 n M.y.q.{ H / / V ' / { 3._ -.f V M.d.6.! V L ' V / / / X.W / 7 V M.q.>.",
"p./ v V H A ! / L { X.' 4 >.q.d.s.) #.| ..) Q ) H T W V O >.3.p.p.T T T H H L T T T X.! ; -.p.p.p.! V T / L / L H T ' V , -.3.p.",
"3.k.L n L L n T / { {  .v f v.6.e.c.` ) #.| | / { H L H w f p.-.q.k.H H T L T T T _ ' W V i p.3.q.k.H V L L V T H A ! A i t q.>."
};
