/* XPM */
static char *_9cffd9974db4bcdc132c6fbff475132acZvXFzfFBjt84OL[] = {
/* columns rows colors chars-per-pixel */
"64 64 146 2 ",
"   c #1C5396",
".  c #255A9C",
"X  c #2C5FA0",
"o  c #2760A3",
"O  c #2D62A4",
"+  c #2D66AB",
"@  c #2F6AAD",
"#  c #3165A5",
"$  c #3568A7",
"%  c #3267AA",
"&  c #346BAD",
"*  c #3A6DAD",
"=  c #3D71AF",
"-  c #346DB2",
";  c #3A6FB1",
":  c #3770B5",
">  c #3C73B4",
",  c #3E78B7",
"<  c #3771BA",
"1  c #3D75B9",
"2  c #3F78BC",
"3  c #4175B6",
"4  c #4977B5",
"5  c #4578B7",
"6  c #4A7CB7",
"7  c #4176B9",
"8  c #447ABC",
"9  c #497DBE",
"0  c #467DC1",
"q  c #497EC1",
"w  c #4C81BE",
"e  c #4780C5",
"r  c #4C82C4",
"t  c #4D85C9",
"y  c #4F88CB",
"u  c #5185C6",
"i  c #5488C7",
"p  c #5888C6",
"a  c #5287C9",
"s  c #538ACB",
"d  c #5288CA",
"f  c #5588C9",
"g  c #5689C8",
"h  c #5588CA",
"j  c #5489CB",
"k  c #5689CA",
"l  c #558BCB",
"z  c #578ACB",
"x  c #5388CC",
"c  c #5289CC",
"v  c #538ACD",
"b  c #5489CD",
"n  c #548BCC",
"m  c #568BCD",
"M  c #578ACC",
"N  c #548BCE",
"B  c #568BCF",
"V  c #558CCD",
"C  c #558CCF",
"Z  c #578CCE",
"A  c #578ECF",
"S  c #548ACB",
"D  c #588BCA",
"F  c #588CC8",
"G  c #598CCB",
"H  c #5C8EC9",
"J  c #588BCD",
"K  c #598CCD",
"L  c #5A8DCC",
"P  c #5B8ECD",
"I  c #588DCF",
"U  c #5A8DCF",
"Y  c #5A8DCE",
"T  c #5B8ECF",
"R  c #598DCD",
"E  c #5A90CE",
"W  c #5C90CC",
"Q  c #5D91CE",
"!  c #578CD0",
"~  c #578ED1",
"^  c #558CD1",
"/  c #588DD1",
"(  c #5A8CD1",
")  c #598ED0",
"_  c #5A8FD1",
"`  c #5C8FD0",
"'  c #5C8FD1",
"]  c #5A8FD1",
"[  c #5791D3",
"{  c #5B90D2",
"}  c #5C91D3",
"|  c #5E91D2",
" . c #5E91D3",
".. c #5C92D2",
"X. c #5D93D3",
"o. c #5B90D4",
"O. c #5D92D4",
"+. c #5E93D5",
"@. c #5F91D6",
"#. c #5E94D4",
"$. c #5F95D5",
"%. c #5D92D3",
"&. c #5F96D9",
"*. c #6193CE",
"=. c #6191CF",
"-. c #6194D3",
";. c #6397D3",
":. c #6194D5",
">. c #6295D4",
",. c #6396D5",
"<. c #6095D7",
"1. c #6295D6",
"2. c #6295D7",
"3. c #6096D6",
"4. c #6396D7",
"5. c #6295D5",
"6. c #6598D7",
"7. c #699AD6",
"8. c #6497D8",
"9. c #6497D9",
"0. c #6397D8",
"q. c #6398DA",
"w. c #679ADC",
"e. c #669BDD",
"r. c #669CDC",
"t. c #679CDE",
"y. c #6599DA",
"u. c #6B9FDB",
"i. c #689BDC",
"p. c #6A9DDC",
"a. c #689EDE",
"s. c #6B9EDF",
"d. c #6A9CDC",
"f. c #6EA0DF",
"g. c #71A1DF",
"h. c #699EE0",
"j. c #6C9FE0",
"k. c #6A9EE1",
"l. c #6AA0E0",
"z. c #6DA1E2",
"x. c #72A6E2",
"c. c #72A4E4",
"v. c #74A7E8",
"b. c #74A9EB",
"n. c #7AABEC",
"m. c #7EB1F2",
/* pixels */
"r.r.o.> , t , , 8 v r ^ x 0 7 4 x r r ^ r r 0 1 8 t r v y 0 2 e ; 9 - r 5 : 0 e t 1 < 7 9 t n u u > 9 7 7 9 3 9 3 p q ( q H p 4.",
"5 ..q.m > 8 d & 7 ^ q o.q a 0 7 7 y r 0 0 t 8 0 1 v v v r 8 1 8 > r ) ; , 0 - 2 - 2 0 0 w d ^ r 9 9 8 9 L i.z 7 7 7 q p =.u q q ",
"X = $.$.e ; 0 w 1 v 0 ~ @.( 7 4 5 y 5 : e t 1 , 1 v ^ t r 8 1 > t ) q.O.0 0 1 0 2 0 0 r v ..r 8 4 7 q M q 9 k ' 4 4 q p p J p 6 ",
"> = & 8 f.: 2 8 1 8 u u @.q q 7 : d ^ d y 0 - 9 9 t v r e 8 9 , r q.e.r.7 0 r 1 0 r r v m r 9 8 q 4 2.9 9  .8 k 9 7 9 q q L L J ",
"w w F = F r = r 8 & x r h q 2.3 3 e r w 5 > > 0 r r v r e > 8 e 3 i ..r q 5 1 8 0 n ) u r 8 3 3 q w.4 9 j.i.J 9 ( ; 4 4 h 9 J 9.",
";.;.w w r $.s : 0 7 0 q @.q q ( q : > & - 3 e 5 d y n d 8 & 9 r ; 3 > u r 9 e d ) n r 9 7 3 4 u 2.q u k :.j.u 9 @.7 7 3 h q q ( ",
"H H f.H , E X.r 9 e > q q.( 7 @.9 1 9 7 8 8 r r d d u r , > 5 9 * 6 $ 9 7 d ..r x q 9 8 3 9 G -.u 4 -.>.u  .u % J 9 7 9 q ( q q ",
"w *.g.F = 6 f.r , 5 9 r t ' h 7 O.9 > , 9 3 r ^ d d 9 9 = 9 0 > G r 9 > j O.9 m i q 9 3 r ,.G * 3 k w.>.u ; 4 :.q 4 9 4 z p 9 q ",
"W 7.;.W 3 u q.r 5 : 9 y 8 v z.n 7 ) r > 9 u 9 ) t 9 > 9 q ; 3  .k ,.P J n r O.r r r 3 7 J i 4 u k p k u % 4 7.q 4 7 9 q q q ( ( ",
";.7.w = , ....3 5 r 5 e 5 d 9 q.^ 8 q.q.m ) ) u 7 7 9 7 4 h b h # 9  .G r ..n u u - q 8 q u 8 i 9 p q ; * d.q 3 4 7 q u :.7.J p ",
"9 * 3 H Q u > ; r > 7 j # i r e e.5 d v 0 0 J 0 7 q ( n a u q 9 :.9 $ u Y r e r 9 3 q * i O.3 6 G $ * * ( i 4 7 7 q k 4.q * 7 9 ",
"=.w ....8 3 7 q : , r r # # & * d ..; 8 :.$.r 9 q u b u ^ a q @.,.a.) q.Y e r r & 7 q ; q e.n # $ 3 h L u 3 7 9 h q ( 9 q ( =.@.",
"i :.a.r 7 0 0 7 r u n t X.u 7 8 r q.r.r.r w 9 , r m i 9 q ( h @.9 9 v 8 q n 8 - 0 r e O 1 q.O.% 4 ( j.u 4 7 8 h k J q i 9.@.@.4 ",
"7 j r > 0 7 < q r q :.i w ..P 9 , w E w r w , r j u l r 0 q q 9 u 7 r r t 1 : 0 r 0 r   8 ..O.9.c.( 7 7 3 q i ( q q P Y p 9 $ * ",
"> q q 7 0 0 0 r ^ @.q 9 9 i G 6 = 8 i w r 3 , r l r e 8 * 3 4 q t u r u r : 0 0 ^ y &.8 > & e J b 4 4 7 q u w.9 9 L u 3 3 6 h 4 ",
"r - 1 q 0 - y e v @.& ) J X -.-.w &.3 e r 8 i r i d 9 = 0 q 4 q 7 ; 5 : & 0 2 ^ e [ < v ^ r > , 3 8 q q u w.4 9 @.9 7 9 q 8 7 q ",
"r 0 e e : : E r r 3.j > # 3 =.6.u 1 0 d 5 9 e j q q 0 q 0 3 q q q 8 ; e e w > n 0 x ^ ^ q 1 ^ q 7 q 8 u &.> 0 &.r 1 0 r 1 > 7 1 ",
": < 0 2 : : , y r ..:.-.G G -.P 7 ^ u 8 , q u j q 0 - q 0 ; q q : 0 u 1 0 ; e &.x q ^ o.1 - < 7 7 7 Y :.5 d b.r 1 8 < & - : : < ",
": : @ @ , 0 @ y w r v m j g r e x ] r : 8 r u n ( q 0 q 3 q g.s.j 3 , , 8 y y ; < 0 0 ^ 1 ; 1 1 r d m 9 d r.e , 0 8 < < 0 y v ^ ",
"2 : @ + 0 n - r d e r 0 9 r w u t : : 5 5 r r ..q q 7 7 3 q q @.&.$.e 5 1 , : & X X ( q 1 0 1 8 u m u r e.0 5 0 8 , t ] t e t r ",
"@ : < - 0 e : , y t y 9 3 1 ; , , > w w 3 l r E 7 b 7 7 4 ( 4 4 9 3 d 3.V w w @ X - x 0 > 1 t r l e ) w r 7 5 5 ; 7 B q < 0 t 0 ",
"2 0 t 0 e 2 0 : > < 5 , , 9 9 9 w 2 , = 3 F w $.q B 0 7 q M 7 q m d = s f.V 1 : < - 0 9 : v q ) u E 3 , 7 , 9 3 x ^ a q q q 0 < ",
"e 2 , 2 , 2 8 , 5 8 , , , , 8 > , : * $ w w i X.q q 7 7 7 ( 3 @.w i , V X.s 8 e i 7 ; 9 7 u i r d , q 9 > 9 r E t q q ( &.h.0 - ",
"9 1 9 r r n t V 9 e 9 m :.O.:.J 8 3 y u s w f.r q q 7 0 7 ] 0 ( t E 3 , f.l r 9 3 > q 7 9 t n r ..> 5 > r r 8 r ( b q 0 < q q 1 ",
"8 7 M :.k.J -.4.9.,.7.z.p 4 @.9...s y.E w Q u w y w , 2 q q q ( i i w & V f.r.t 3 3 w , r g d n 8 8 > e L 9 q q 8 6 b a t q q 1 ",
"3 4 4.( 4 . 6 c.q 9 s.u X 3 9 7.q.3.e $ Q w w r u = < 8 0 w.q q r.f.F 8 &.F w > , 9 > e e m r r 3 e , r q u H f.' 9 4 i q a u 1 ",
"3 u 6.u 4 3 P p.G G u.p * # 9 9.:.c.= 3 E w l u > 1 t n 0 q q q &.;.n , s w , w 3 9 7 q G u d 9 e & q m 9 u g.>.9.-.q q a x 0 1 ",
"4 9 4.7.w.G p r k =.k -.q 4 7.@.$.$.f.6 i d w r ; 0 7 r q q @.q X.t w w s w , : 8 q q r ' u r 7 5 & r r u i >.z i g.:.9 u u 1 ; ",
"4 7 8 8 8 > 7 3 3 3 u q ( ' h 3 9 n :.k u u r t - 0 < 0 0 3 q q r u E d 8 = 9 r r x a n u ^ 8 9 : e y d 3 q G >.6 =.4.9 t b u - ",
"1 7 e 9 8 9 q < q ; 0 ; 7 9 0 7 8 ; 9 4.6 -.r u q q - - < q 0 q d 9 8 3 , w [ s i b ( u u v 5 0 > 8 n s 4 9 6. .u G  .9 i a ^ q ",
"8 1 0 0 1 : 7 r 7 7 7 q q 1 0 7 q 4 8 J L u Y 9 q q ^ 0 0 0 < q 5 5 8 8 e u r r a q b q y 0 0 8 , r r 8 u u 7.H u H -.q u 9 x ^ ",
"< 1 : : 2 t v r x q 7 < 1 1 0 7 8 q 7 3 i J 9 :.a q ^ ^ q q q ; , 9 , 3 j Y r j q t 7 q 7 7 , , t t 8 t 3 p g.9 p 9 -.j 7 9 Y e ",
"e , e : q ( 3 q u 9 b q q < 1 1 2 : 8 w > d j r  .q 4 9 r v j r 9 , t r l P d , 7 < 7 q 0 < 0 q q q J :.=.w.Q u # 4 P :.q 4 ; b ",
"8 < > & 9 h 9 =.q h 9 h a q 7 7 2 2 2 , , 3 d 9 s.J r u q 6 r d g e r s i e 5 3 0 4 7 > 7 q a a q ' ,. .>.u.G 9 * O $ k 7.u u q ",
"n e 5 1 q u 9 q  .7.h 9 a u B b t e e > 9 , i q 9 =.w.4.G r w w e i l w u 8 e 8 q ( J q q b a 7 4.-.9 u 5 * $ * # . ; 3 =.( 9 9 ",
"e t r u u q 9 k w.w.9.h q 9 a q : 2 ^ : 8 5 x h.q 6 9 P i.:.V ..P j w m 9 > , r q q 9 q q q b i w.9 $ 6 i P p * * i  .X 8 7.9 q ",
"r e r r u p q k c.L 9.c.q u q a y t t : 7 7 7 q  .' q 9 r ..m r d y m 8 3 8 j 9 h q J :.d.7.7.g.i * * =.u.-.7.s.7.d.4 . #  .w.7.",
"f.X.l w q i u p i $ 4 L i 9 9 i N e @ @ 0 0 q 7 9 4 q i i w r F r 5 3 e > e w l 9 p c.m.n.7.p p i p 3 # -.,...g v.7 X 3 $ 9 J J ",
"j O.....i u =.H * 4 ; q z.u 9 u 0 0 @ @ ; ; 7 7 3 7 9 9 9 e q 7 9 8 9 > 8 r 8 r q q g.v.g.7.q p i J 9 $ 7.=.i G M % q =.h ; 3 3 ",
"* 9 6 ..7.>.>.3 3 v.4 3 9.G 9 u ^ < @ + 0 a 0 4 7 3 7 4 3 3 8 , > > > , u Y , 3.9.4 p =.g.g.q q 6 4 q $ w.,.,.-.* q  .q k X L 4.",
"9 4 9 4 4 8 3 $ 6.Y * > g P r r q < + < q ^ q @.q M i u a q 0 e 8 , e [ t 8 r l i g s.;.=.p H 4 4 3 6 $ 4 7.4.' * J p 9 3 * 4.c.",
"w.,.f.=.7 ; X ( b.z.q.6.3 j G 8 ^ 2 < < ( q q q u q q 9 q q r x y t y e 9 y &...Q E P p =.9 4 4 ,.,.3 # % 9 >.6 # q J q * . 4 9.",
"P w u 7.u # 3 k.$.m &.X.P i L u q q ^ y ^ q q q r n ' ) ' :.] u y y t n X.X.u 5 9 i w 5 3 3 q w.-.-.8 u u 3 * $ q p z h 7 3 $ h ",
"P 5 q 7.i % ' 2.d ..w 5 i P 9 -.q y q q q q ( k.6.:.' b q a ^ t y y y y d r d ..u u G P p =.p.d.g -.4 6 i p 6 =.z z J p q h 3 @.",
",.7 u M w.w.k.q > 8 e , 3 V l w E V l i @.@.@.4.u ; 3 r v t t t 2 8 0 0 t y 0 : ; # ; 4 @.:.7.M -.,.= g =.G u u q L p k q q 4 =.",
"( @.u h n a 0 q y 2 r o & 8 E t t r r 8 q 0 7 4 8 i 9.:.t , , 8 e 2 2 2 , , 5 0 u u 9 8 :.J L i.p.9 4 P q u 9 p J M h J z q 9 7.",
"=.9.* 3 q 7 0 ^ O o O # & 8 3 i l l P u G i J  .-.P q ; 1 r e , : @ - , 1 7 8 0 7 q 3 ; J ) J P 4 5 Y g q 7.7.,.i.i.i.9.h 4 3 q ",
"=.@.' q q r 3 < o + t , r 8 , 8 > , e u ..j u 9 9 7 : 8 0 , & : & , t e : , 8 - & q r 7 9 O.' q r a.....4.h h u q 9 M q 9.:.7 3 ",
"9 9 $.Y r r 6 7 # q.0 7 0 < 1 0 t 5 1 , 5 7 : 5 > 9 t 2 y 2 - < @ < ^ ^ y t ~ 0 - ; 0 7 > ( :.7 :.t e r 8 r r u r u x q t a ( @.",
") d 9 t ..l u 4 # q 0 1 < < - - 8 8 > , 9 : e 8 e e : 2 e 2 e < ^ - < e y y v ^ 7 ; 0 q 7 i ( 9 ^ 5 8 r ^ r : 7 0 8 7 4 t q q t ",
"r n s d 9 i ..w 7 3 4 0 - < < - , 8 d y v 5 0 & & & e e + : 1 r e - - @ 0 t y o.q 1 7 a 8 q i u &.9 v v < & t 7 1 7 0 < < 7 q a ",
"r r i s X.l w &.a 7 q 0 + < < < 8 & 8 @ : 1 8 0 0 , + < : 0 t 0 0 < < . t o.~ y q - 7 r 8 q q J ^ e ^ 1 ; 8 7 q 9 1 7 0 q 7 < 7 ",
", : w w 0 s n w q q 0 0 0 - - - 2 @ 2 2 r d r v d e & 5 5 t q q < : y @ q r r ~ q % 7 q 7 u r ( r u , 5 0 5 9 t h h q 4 9 4 4 q ",
", 0 = w s w w [ ( q 0 0 0 - - + 0 0 - e y e y t r 5 , 1 5 r & 3 2 - : : 7 v r y 0 & 7 7 9 ^ a ( r j > 9 1 8 ( i 4 ( @.9.9.L 7 7 ",
", 0 : , w w V w ( q q 0 0 < - - 2 y - 2 v 0 m d r t & 5 , 7 q r e , , w - r t x 8 ; q 7 u u J r 9 8 9 ; u :.8 i ' q 4 p c.@.4 0 ",
", 0 , , 0 y w w :.q x 0 0 < < + t ^ 2 - y e y d v 9 8 q r Y i J m 8 e e 1 7 q 7 3 7 8 7 n r ) 0 3 5 8 ..Y 3 ,.9.2.j.q * ( j.h 7 ",
", 8 r : ; E s r p ( u 9 7 - 1 + e e 0 @ e e d y b 7 4 q k 9 p 9 r y 8 8 w 8 8 ; 9 9 1 r v u q 7 8 3 Y 5 9 E E , 4 h.@.3 z 9.:.q ",
"0 < w , ; , u i q ( q 8 7 7 0 ; : t e - t y t n a 1 4 q M i.7.>.w V n 3 > 8 , w > ; u m n u > 9 3 ..r e E f.l 5 7 9.4.3 z 7.( 4 ",
"0 > > t , $ r t q ' q 7 7 r n 0 - + - 1 t t y s a 7 4 a q c.7.G f.t 3 V u ; 8 , 1 ( n d r 9 q ; s ..> ..$.9 w n q 9.2.* q 9.4 3 ",
"r 0 > 8 w : t r q  .u q 7 x ] u t : < t y y d r q 7 3 M u 7.6.u e V $.w u e.) n O.u u x q 7 1 u .., ..E , 9 s y q w. .3 J 9.3 4 ",
"~ b 0 < e 2 e i w m g e > q n u t ^ u r r d x u 9 7 3 J i :.' q w e r ..q 5 q.m u r x u 9 > 8 ..w V E 9 n y u w r r.m 3 @.' q 9 ",
"y t q < t 2 > t w l j r 7 9 q a q 0 r r u v n u q > q u u ' q 9 l i u u m d 9 t q O.u q 7 9 v e m s w r w > w r r :.m 8 2.h 9 3 ",
"0 q 0 < t w > 8 r t ) u q 7 q r n 3 9 r m r i q 8 > G 9 L P 9 u , 4 3 u g r m i O.r u 5 7 r 9 y [ w t : & r & t e s ) 7 q.9 > > ",
"0 q q ; r 2 w > r r n u t 7 4 u q q r 9 n e q 9 > 8 Y q ' 9 9 3 8 9 3 3 r u r r q t q 7 1 9 n [ t r ; w u w t ; r w ) 9 q.q 3 q "
};
