/* XPM */
static char *cbebcccbbb7246dfd5b14b1aaec5efdfXO0t5FoBot1VMpmV[] = {
/* columns rows colors chars-per-pixel */
"64 64 206 2 ",
"   c #C38D33",
".  c #C88F38",
"X  c #CB943C",
"o  c #CB983F",
"O  c #CB9E41",
"+  c #D39C43",
"@  c #D89F45",
"#  c #D5A044",
"$  c #D9A247",
"%  c #D4A54B",
"&  c #DCA64C",
"*  c #D4A94D",
"=  c #DAA84D",
"-  c #DAA650",
";  c #D7A850",
":  c #DDAC53",
">  c #D4B253",
",  c #DBB156",
"<  c #DCB059",
"1  c #DBBD5B",
"2  c #E1AB52",
"3  c #E7AF5A",
"4  c #E2B155",
"5  c #E8B157",
"6  c #E5B55C",
"7  c #ECB55D",
"8  c #E4BB5E",
"9  c #EDBA5F",
"0  c #F1B55F",
"q  c #F1B95F",
"w  c #E4B660",
"e  c #E9B760",
"r  c #E6BA61",
"t  c #ECBC62",
"y  c #F3BD64",
"u  c #F8BF68",
"i  c #DDC15F",
"p  c #D7C163",
"a  c #DBC363",
"s  c #DECD6B",
"d  c #DDD16E",
"f  c #E5C464",
"g  c #EDC465",
"h  c #E5C966",
"j  c #E9C966",
"k  c #EDC46A",
"l  c #E3CB6B",
"z  c #ECCC6B",
"x  c #F3C266",
"c  c #F9C667",
"v  c #F4C66A",
"b  c #FAC56B",
"n  c #F3CC6C",
"m  c #FBCB6D",
"M  c #E2D16E",
"N  c #EDD16E",
"B  c #F2D16F",
"V  c #FAD06E",
"C  c #E6CD70",
"Z  c #ECCD71",
"A  c #FEC770",
"S  c #F3CD72",
"D  c #FECD72",
"F  c #FFCF78",
"G  c #E4D373",
"H  c #ECD573",
"J  c #E7D976",
"K  c #EBD975",
"L  c #E4D67B",
"P  c #EED679",
"I  c #E5DD7C",
"U  c #EDDB7B",
"Y  c #F4D472",
"T  c #FBD474",
"R  c #F4DA76",
"E  c #FAD977",
"W  c #F5D67A",
"Q  c #FDD67A",
"!  c #F4DD7B",
"~  c #FDDC7B",
"^  c #EEE37E",
"/  c #F5E27D",
"(  c #FCE27E",
")  c #E6DB81",
"_  c #ECDD82",
"`  c #F4DE81",
"'  c #FCDE81",
"]  c #EDE383",
"[  c #EFEB8A",
"{  c #F5E483",
"}  c #FCE583",
"|  c #F5EA85",
" . c #FDEA86",
".. c #F4E789",
"X. c #FDE689",
"o. c #F5EB8B",
"O. c #FDEC8B",
"+. c #FAF287",
"@. c #F7F28D",
"#. c #FFF18B",
"$. c #F9F18F",
"%. c #FAF08F",
"&. c #FBF18F",
"*. c #FFF08F",
"=. c #FFF38F",
"-. c #FDF18E",
";. c #FFF58E",
":. c #FFF78F",
">. c #FEF18D",
",. c #FFF98F",
"<. c #F7EE91",
"1. c #F6EB91",
"2. c #F8EF90",
"3. c #F9EE92",
"4. c #FFEF90",
"5. c #FFEE90",
"6. c #FDEE91",
"7. c #FAEF95",
"8. c #FDEE91",
"9. c #F7F392",
"0. c #FBF191",
"q. c #FAF192",
"w. c #FAF193",
"e. c #FDF090",
"r. c #FFF090",
"t. c #FFF190",
"y. c #FFF091",
"u. c #FEF191",
"i. c #FFF191",
"p. c #FDF391",
"a. c #FCF291",
"s. c #FFF291",
"d. c #FFF391",
"f. c #FEF290",
"g. c #FFF192",
"h. c #FDF392",
"j. c #FCF293",
"k. c #FFF292",
"l. c #FFF392",
"z. c #FFF293",
"x. c #FFF393",
"c. c #FDF092",
"v. c #FFF591",
"b. c #FFF490",
"n. c #FFF492",
"m. c #FEF493",
"M. c #FFF593",
"N. c #FFF493",
"B. c #FCF492",
"V. c #FBF094",
"C. c #FAF194",
"Z. c #FBF096",
"A. c #FCF394",
"S. c #FFF394",
"D. c #FFF294",
"F. c #FDF296",
"G. c #FBF595",
"H. c #FDF495",
"J. c #FFF494",
"K. c #FFF594",
"L. c #FEF495",
"P. c #FFF495",
"I. c #FFF595",
"U. c #FDF795",
"Y. c #FEF694",
"T. c #FFF694",
"R. c #FFF695",
"E. c #FFF795",
"W. c #FDF497",
"Q. c #FEF596",
"!. c #FFF596",
"~. c #FDF797",
"^. c #FFF697",
"/. c #FFF797",
"(. c #FFF796",
"). c #FEF393",
"_. c #FFF893",
"`. c #FFF994",
"'. c #FFF896",
"]. c #FFF997",
"[. c #FFF897",
"{. c #FFF995",
"}. c #FFF599",
"|. c #FFF598",
" X c #FFF698",
".X c #FFF798",
"XX c #FFF699",
"oX c #FFF59B",
"OX c #FFF79A",
"+X c #FFF59A",
"@X c #FFF998",
"#X c #FFF899",
"$X c #FFFA99",
"%X c #FFFB99",
"&X c #FFF99B",
"*X c #FFFA9A",
"=X c #FFFB9B",
"-X c #FFFD9B",
";X c #FFFC9A",
":X c #FFF99C",
">X c #FFFB9D",
",X c #FFFC9C",
"<X c #FFFA9B",
"1X c #FFF7A0",
"2X c #FFFEA2",
"3X c #FFFCA1",
/* pixels */
"O.o.u.o.O.o.*.K.v.v.+.| o.;._._.D.u.u.u.O.w.@.%.G.%X%X<.|.|.%Xo.G.@.@.o.o.O.o.6.|.|.X.P o.{ u.o.O.%Xu.%Xv.*.u.*.u.u.X.X.} O.O.X.",
"O.u.X.O.%.%XK.v.O.o.o.O.;._.v.v.K.O.o.o.w.v.[.[.;X[.G.o.<.}.D.o.[.G.[.[.v.u.O.O.6.O.X.O.X.{ X.X.K.o.%Xu.>XK.| o.u.v.6.o.} o.O.O.",
"O.K.*.%Xv.K.o.o. .| u.u.K.[.O.v.o.X.O.u.K.%X%X[.K.o.<.w.A.>X1.1.K.K.K.K.u.O.3.O.6.{ O.D.O.6.X.{ o.3.o.%Xu.K...X.O.D.K.O.} X.O.O.",
";Xv.v.o.O.X.{ O.u.o.u.D.u.v.o.u.o.3.%X;X%XK.K.K.G.<.A.K.|.:X) [ K.B.o.w.6.o.6.u.6.} 6.O.6.K.O.o.o.u.O.O.u.o.K.o.X.O.*.O. .{  .O.",
"_.| O.^ ^ v. .v.}.O.6.O.O.6.o.6.K.[.[.v.w.w.G.|.A.A.7.7.|.A.) ~.|.v.O.u.u.6.u.O.O.o.6.` X.O.6.|.O.o.6.{ X.6.O.u.O.X.O.u.O.{ /  .",
"^ | v.| J %XO.X.X.X.X.O.O.o.6.u.;X[.B.%.u.K.K.D.o.A.A.7.:X..L 1Xw.w.] { O.o.6.o.3.X.X.U u.o.u.%XK.X.{ O.{ O.X.D.K.X.X.v.u. .{ X.",
"+.;.;. .s }  .X.' O...O.6.8.|.%.[.v.%.v.K.[.G.w.W.|.:X}.:X_ ) 7.D.w.] ..o.X.6.X.O.X.{ { u.6.D.o.X.O.O.{ X.G 6.O.v.O. .O.*.O.X.{ ",
";.#. .*.H H X.' X.X.C ` }.%X%X] v.w.v.B.u.B.D.|.W.<.7.A.7._ 7.2X>X>Xu.|.D.o.6.| } o.o.O.o.u.D.U J O.|.` s ` X.6.u.O. .X.*.*.O.} ",
" ./ v.X.} l ' O.X.X.U ` >X%XG.] G.B.@.K.w.o.o.A.}.}.>X3X:X1.1X:X}.|.D.o.}.:X|...o...X.6.D.6...{ X.6.O.{ ! } O. .X.O.X.} X.*.#. .",
"( } }  .} ~ W ! ' X.>Xo.3.G.[ 9.o.K.K.u.o.v.A.o.1X}.>X|.oX7.oX:X|.%X|.6.|.:XO.` D.u.O.{ X.6.u.O.X.` ` X.O.X.{ } } O.#.O.O.*.#.O.",
" .} Y Y } X.! ! X.6.6.K.|.9.9.%X9.9.9.<.%XK.D.1.3X|.1X}.}.}.7.W.3.3.3.o.Z.:X` _ D.D.6.6.O.o.o.X.u.X.} O.6.O.X.{ {  .O.O. . .O.*.",
"} ( ! Y E H ! X.|.%X{ 3.K.~.~.o.|.<.o.o.>X>X}...|.}.}.o.1.1...o.{ [ ..{ o.6.L ` D.6.D.D.6.o.O.6.G { O.X.O.u.O./ { }  .O. . . .#.",
"} ~  .} ' P {  .u.O.6...] >X6.O.9.~.oX1.:X1X:X_ o.7.o._ o.] 3.o.[ o.o.[ ..o.G ) O.D.D.6.6.6.{ G s X.v. .{ *.v.O.} { }  .O.O. .} ",
"( ( }  . .u.v. .] { { o.o.6.u.>X<.G.:XW.A.7.8..._ 6.o.8.%X3.%X|.D.>X>XK.}.6...X.` ..{ X.D.D.` a O.O.O.o.| } *.v.O.{ / /  .O. .} ",
"H ! } } { o.v.U.O.| { u.6.U 6.6.W.oXoX:X7.1.o.6.<.:X:X|.2X>X|.>X|.>X>XK.>X>XD.D.X.` _ _ X.6.6.6. .{ { O.O.O.o.O.;.O.} / / } O.#.",
"/ ! ! P >Xv.v.O.O.o.|.{ ` X.6.6.~.1XW.7...}.}.K.>X>X>XO.%XK.3.>XK.|.w.o.u.6.|.6.}.}.6.W P X.6.6. .O.O.o.O.#.O. .*.*.O. .{ }  . .",
"*. .+./ ;.;X;Xo.6.|.}.1.` ` o.3.>XD.o.3.u.>X%Xo.B.B.9.@.B.o.O.u.O.O.u.%.O.v.X.{ O.D.6.X.C ! { D.*.| o.X.6.O.O.6.X.O.6.O.} } X.} ",
"} }  .`.>X%Xo.A.}.o.1.oX3.] [ v.D.o.o.v.%X%X[.o.] >X@.@.[.;.u.K.u.u.o.O.v._.O.o.X.X.O. .6.P ` X.u.*.*.O...X.X.O.X.X.O.6.6.' } X.",
" . ./ _.[.o.] 7.|.}.6.D.6.3.|.>Xo.| @.>X;X%.O.B.@.B.U.^ o.*.O.O.o.u.^ o.v.%.| *.{ } ` X.6.X.U ` O.K.K.X...X.O.X.6.X.X.6.D.X.` } ",
"/  .+.%Xv.%.] ] ) 3.|.u.D.>X%Xw.o.w.%XK.%.@.@.] @.@.%X%.d *.O.u.O.u.G o.;._.+.O.G O.` } 6.' K.! { O.u.O.X.X.O.X.X.6.O.X.6.D.X.` ",
"/ / 6.%X_.B.%X1.) _ o.u.:X1XK.9.@.;X;X[ | %XB.I ^ %.u.;XG M #.O.v.O.d | *.%X;.J J  .O.{ a O.O.*.P { O.*.u.O. . .} O.O.X.X.v.*.{ ",
"} / u.K.;.+.|.~.1X8...*.:X:XG.B.[.[.%XB.@.9.@.@.] o.u.{ O.l  .X.K.*.U +.#.u.| G *.J v.M J X.6.O./ / { O.K.*.o.X.o.X.O.o. .X.O.} ",
"| | 3.K.[.o.o.o.}.}.D.|.oXW.o.] [.@.@.[.B.[ @.[.u.{ X.O.*.6.~ u.X. .X.u.v.6...{ O.u.J { O./ v.} O.{ / X.u.D.O.X.O.` X.O.|  .O.X.",
" .*.| ] ;.%X<.W.7.D.|.:X6.1.o.K.[.%.| ^ [ U.;.U |.O.O.|.} E Y z Y z z ! D.u.' X.U O.O.O.O. .! ;.%XX.! / O.D.6.X.{ P { O.} O.[. .",
"o.u.[.{ o.|.o.|.K.D.:X:XO.<.K.%X;.{ _.;.] ^ | X.l O.6.Q n g f g k > 6 S Q ' X.! ` O.O.*./ ! / O.*.O.} U P { O.6.` X. .O.} o.*. .",
"o.v.%X@.}.:X<.K.D.|.1X:X%.o.K.>X[.O.O.| w.+...X.X.S S v t 8 6 4 6 % 6 7 S k ' X.X.D.o.J d {  . . .*. .J P X.D.O.} O.O.*.O.#._. .",
"3.[._.;.|.:Xw.w.6.}.1X}.o.@.%X>X*.*.;.| _.*.X.6.Z.Z r w t y q D x u 7 7 3 w v 7.O.U d { } ;. .( O.;.O.! U O.u.O.{ X.X.X.} O.#.} ",
"D.;X_.%.A.W.K.K.K.:X1X1.o.B.1X>X| #._.+._.O.o.|.X.k y y y D T Q F Q D 7 3 3 S ' } X.O.u.| #. ./  .*.*. ./  .*.u.X.X.o.X. .O.O./ ",
"%X>Xu.w.w.<.W.A.K.>X:X7.o.D.>XK.O.| +.o.v.;.6.O.Z u e y ' A 5 q y u u u 3 - t ' D.O.X.u.}  .( ( / | ;. .{ { O.*. . .X.X. .O.#./ ",
"%X|.w.<.o.o.] ] 6.6.K.7.8.>X>XB.,./ +.+.B.v.D.O.C < 3 A A 3 $ $ + + 0 ' 3 : < S 6.X.{ / /  .( h H  .;.{ U  .*.O.{ } X. . .O.*.! ",
"K.o.~.<.[ [ ^ ] 8.6.6.O.1.oX1X[.;.| ,.@.;.@.v.O.Z w w F b @ & 0 - X < u u - < Z X.} { v. .Y j B / *.v.| U  .v.*.O. . .X.O.*.*./ ",
"K.o.}.A.*._.O.D.:X:XK.O...7.%X%X;.#.#.+.;.,.u.u.S w t ' y + 0 y y & % A u y w S  .O.O.#.( ( ~ } O.;.v.} / X.O.v.X.o. .O. .O.#.! ",
"v.| ;.O. .*. .*.K.D.+.] ^ | ;._.+./ / ,.+.,.#. .Z w u ' e + 0 3 t 2 O y A 7 e S O. .X.;./ | ( } *.[.6.` ` O.D.D.X.o.X.O.{ O.O. .",
"*.| *. . . .{ / O.u.v.%.| }  .#. ./ / ,.+.+./  .E t 2 A u . X t 2   + b F - 6 v X.X. .*./ } E E  .{ ! W C l ! X.{  .| +.| X.O.~ ",
"@.+.;.;. . .#.} u.K.v.O.{ R /  . .( ( +.^ +.#.O.' * - b F X + + .   + D 7 - - v ' H J P J Y Y ! { } U p a W X.X.X.O.| *.X.O.O.` ",
"_.*.#.#. .(  .} { O.u.u. ./ R  .+.( |  ./ +.*.*.} z : 3 b u 7 3 : 7 b u u : w ' 6.~ { ' } }  . .u.6.{ P { u.K.v. .X. .*.O.*.6.{ ",
"_.O.| #.#.(  . .{ O.D.D.6.R Y  .,.#.O.| | /  . .6.~ v 6 2 D Q b b T Q q t 6 S X.} X.6.'  .X.X. .D.O.` ` ..X.O.X.X.X. .O. .*.*.{ ",
";.O.+.#.#.#. . .X.6.6.u.O.R !  .v.;.O.| O.|  ./  .} S , x 7 7 b b y 7 7 : r Q X.! ' X.' } ! { K.D.X.` ` O.}.v.u.} } } X.{ #.;.| ",
"*.;.;.}  ./ H ! U { 6.|.u. ./  ._.@.o.| *.} X.X. .} z n 8 : & 7 t = = < v z  .} X.` ' ` ' C G O.X.Z f ` D.u.O.O.} X. .O.X.#.v.o.",
" .*.;./ /  .P  .6.O.D.K.O./ ( | `.9.| | O.{ O.O.} ! v.} B = 4 2 4 7 O g Q X.! W ' ' ' W ` } ] ` X.' C p s o.v.*.{ X. .O.{ O.v.| ",
"/ } #./ Y  . .O.6.X.D.|.|.O./ ,.%X%X@.o.*.v.} _. .O./ / ( V b g v b T E #. .~  .X.' O.} P O.D.6.' W X.X.^ G G { ~ 6.} O.O.{ %.| ",
"~ T (  . . . ./ X.X.o.X.O.| ^ O.`.%X_.{ *.|  .O.#.N N Y ~ ( }  .} } X.} / (  .O. .W { ` { D.D.O.` ' O.O.w.| v.U { X. .O.X.X.;.@.",
"Q ~  .;. ./ / / { { { o.O.O.+.+.,.%X@.|  .#.#.} ! z E ~ Y E T ~ } n z / ! ! ~ ~ ~ z H ! X.u.6.} W ` X.%XO.D._./ } X. .O.X.| v.O.",
"W ! ! O.#. .*.+.....{ 6.%XO.| ] ;.%X+.#./ O.O./ 1 Y } ~ ~ ~ E ~ T n j ( / E E Y Y z H ! O.O.' Q ` W X.|.{ D.{ X.X. .X.*. .O.B. .",
"E / R +.#.+.+.#.o.O.{ 6.%XO.| U  .#.,. ./ N / h n ~ E T ~ ~ ( ( ( ' z B Y ~ ( ~ Y E ( O.#.( Y W ' X.O.` X.D.X.X.O.X.O.#.O.#.u.X.",
" . .( ,.#.^ ^ #.X.6.X.X.u.v.O.! !  .#. .R M z f E T T Q V V E B N Y Y Q ~ ~ m n E (  .O.} Y S T X.}.X.X.6.' ' X.O. .| O.O.O.O.{ ",
"#.( / / ,.,.+.;.X.O.X.} O.|. .R B ~ (  .Y / N B g x T Q T m ~ ( ! H T Q m x m ~ ( ( ( ~ T n T T X.K.X.6.X.W !  . . .O.o.O.O. .~ ",
" .#. ./ +.,.@.v.O.X.X.X.6.O.H h T B ( Y (  .( Y x D T m m V n ~ Y a Q Q Q Q } ~  .( Y B v v Q ~ X.{ D.' ' } X.{  . .O.O.O.6. .' ",
"O.} ( /  .;. . .O.' ' } ' z H O.Y Y z f ! } O.~ E Q ~ ~ ~ ~ ~ ~ ~ Y } X.'  .} ~ ~ E n n W Y Y O./  .} ~ T ~ ~ } X.} X.#.O.} ~ ~ ",
" . .} R !  .O.} X.~ ' ~ Y Q }  .X.~ i 8 z B ( } (  .X. . . . .} S Q ~ Q T Y B V Y Q E ~ ' X.' H  .( ( Y ( E ' ~ ~ E #.( Y R n ' ",
"/  .( R H ( *.~ ~ ( ~ n B T ' ' }  .z ~ E B Y Y j B S Y B n n n > H Y N Y Y B / ~ ! / } X.K.O.l / E ( E V ( } V E } ~ f f E  .~ ",
"/  .} ~ Y T  .( T } ~ T Y n S ~ ( O.(  .~ ( ~ T Y Y T T E E Y Y 1 { } }  .} (  .*. .*.u.X.O.[.*.R ( E ( R ( / ( ~ ~ B Y Z z { u.",
"( / ( ( T V Y T ~ Y ~ ( T n T T !  . .( /  .( / }  . .} (  .} ( H  . . . .( +.(  ./ / (  .X.O.#.E ( R N +.( R  .} n Q ' ' W l } ",
"( R ( ( E V g m } ~ T E ~ T T Y R !  ./  . .( !  . . .} ( ( { ~ (  . . .(  .,.#.#.O.( /  .O./ E ( E / R K /  .( Y Y Q ~  .X.R N ",
"+.( / T ( T x c D ~ Q Y ~ Q m m T E ~ Y ~ } ~ ~ E ~ T T E E T ~ E ( ( E Y ( ( ( (  . .~ Y H N E E (  .( i ( ,.Y Y T ~  .X.~  .X.",
"(  .B R } E V m c D ~ ~ T ~ ~ T n T n D ~ ~ ~ v T T T D T ~ ~ ~ E (  .E E ( V ~ E Y Y Y Y Y Y E ( ( ( / +.( R / / ~ X.~ ~ X.}  .",
"( ( ( V E ( V m v c m T E T T ( E v n T ~ Y Q Y ~ ~ ~ ~ T T E E E ( ~ ( ( ( ( ~ T E Y f ~ ~ ~ E +.( R ( } ( Y E  .( ( (  . .~ E ",
"E ( ( ( R ( ( T m c c m T T T V ~ n T Y Y m Y m T Q ~ ~ ~ ~ } ( } ( ( ( E ( ( ~  .( ~ z j } ~  .(  .( ( Y Y / ( } / ( #. .! Y Q ",
"E ( ( ( E B ( ~ m m c x m T T T n g E E ~ } T T ~ ~ ~ Y ' ~ ( E (  . . . ./ / ( } / ( } h /  .O./ (  .E n Y  . .( (  . ./ P Y ' ",
"( ( (  .( Y E ( ~ T m b c n V ~ n g T B Y T T Y Y T T j ~ ~ ( ( ( ( ( +. ./ } }  .*.O.*.! N  ./ ( ( / E B (  . .(  .#./ ! ~ } X.",
"( E R ( O. .V E } ~ T T v v j n z E ( ( ( E ( ( ! ( ( H ( ( ( / ( / / ( / / } o. .O. .|  .M  . .+. .R R (  .( ( #.#.( / R } X.X.",
"( V E E ~  .( z E ( } ~ E V n g 8 z V E ( ( ( Y (  . .(  . .+.( (  .} (  . .} } { / { {  . .( ,.( ( R E  . .(  .#.( / ( }  . .O.",
"( ( E V Y ( ( N B /  . .~ ~ E T D b c y T T D m m T E T ~ ~ ( ( ( +. . .O.O. .X.O.O.*.*.#._.(  .( E E (  . . .#. .( ! ( O. .O.#.",
"( ( R R E E ( ( ( Y R } X. .~ Q F b T b m m c T T T T T m m V V ( (  .(  .O.O.O.O.#.O.O.O.#. .( E T ( +. .( +. ./ ( } }  .O.#.O."
};
