/* XPM */
static char *cf7c5c95a1874e04c181495da193a386Yz4qmXRiLvI7OZaj[] = {
/* columns rows colors chars-per-pixel */
"64 64 201 2 ",
"   c #271102",
".  c #2D1403",
"X  c #2C1904",
"o  c #2C1708",
"O  c #2D1A09",
"+  c #311603",
"@  c #351B04",
"#  c #3B1D03",
"$  c #341D0B",
"%  c #3A1E0A",
"&  c #3C2205",
"*  c #35210C",
"=  c #3D230B",
"-  c #3F2809",
";  c #352111",
":  c #3C2512",
">  c #3D2A13",
",  c #3F2A19",
"<  c #411E04",
"1  c #432205",
"2  c #492505",
"3  c #452805",
"4  c #4B2A06",
"5  c #43250C",
"6  c #4A260C",
"7  c #45290D",
"8  c #4C2B0C",
"9  c #512D04",
"0  c #5A2E07",
"q  c #522D0C",
"w  c #4E300D",
"e  c #53320D",
"r  c #5A340D",
"t  c #5E3A0E",
"y  c #412611",
"u  c #442B13",
"i  c #4B2D13",
"p  c #442D1A",
"a  c #4B2E19",
"s  c #512E12",
"d  c #453215",
"f  c #4C3215",
"g  c #45321A",
"h  c #4C331B",
"j  c #4D391D",
"k  c #543314",
"l  c #5A3514",
"z  c #553916",
"x  c #5C3A15",
"c  c #53351B",
"v  c #5A361A",
"b  c #55391D",
"n  c #5C3C1C",
"m  c #623A0F",
"M  c #613613",
"N  c #623D14",
"B  c #683F13",
"V  c #60371A",
"C  c #633D1B",
"Z  c #693E1B",
"A  c #4C3321",
"S  c #4C3A22",
"D  c #533621",
"F  c #5A3721",
"G  c #543B23",
"H  c #5B3D22",
"J  c #553C2C",
"K  c #5A3E29",
"L  c #623E23",
"P  c #6B3F22",
"I  c #5E411E",
"U  c #644115",
"Y  c #694215",
"T  c #64421D",
"R  c #6A441D",
"E  c #66491F",
"W  c #6E4B1E",
"Q  c #70441D",
"!  c #744A1E",
"~  c #564125",
"^  c #5D4124",
"/  c #554329",
"(  c #5C442A",
")  c #5F4A2D",
"_  c #5A4631",
"`  c #634324",
"'  c #6A4523",
"]  c #664A26",
"[  c #6C4A24",
"{  c #634529",
"}  c #6A462A",
"|  c #654A2B",
" . c #6C4B2B",
".. c #714624",
"X. c #734B24",
"o. c #794E25",
"O. c #71452C",
"+. c #714E2B",
"@. c #724B2C",
"#. c #734C2D",
"$. c #734D2B",
"%. c #794E2A",
"&. c #6F5022",
"*. c #6E512C",
"=. c #765225",
"-. c #7A5326",
";. c #73522C",
":. c #75522F",
">. c #76562E",
",. c #74522C",
"<. c #79572E",
"1. c #7B532C",
"2. c #7E592D",
"3. c #624632",
"4. c #654D31",
"5. c #6C4D31",
"6. c #714E31",
"7. c #645131",
"8. c #6B5435",
"9. c #6D5133",
"0. c #6E553A",
"q. c #69583E",
"w. c #65543A",
"e. c #725032",
"r. c #775333",
"t. c #745332",
"y. c #7A5737",
"u. c #7A5532",
"i. c #765934",
"p. c #7B5B36",
"a. c #7D5A34",
"s. c #745739",
"d. c #785739",
"f. c #775A38",
"g. c #755A3B",
"h. c #795D3B",
"j. c #7C5B3B",
"k. c #7C603E",
"l. c #7C5F41",
"z. c #7D6242",
"x. c #7F674B",
"c. c #815623",
"v. c #845926",
"b. c #81562B",
"n. c #835B2D",
"m. c #895C2A",
"M. c #825734",
"N. c #835C33",
"B. c #895E33",
"V. c #845D3A",
"C. c #895E3A",
"Z. c #84622E",
"A. c #8E602E",
"S. c #856233",
"D. c #8B6335",
"F. c #86623D",
"G. c #85623C",
"H. c #8B643B",
"J. c #8D693D",
"K. c #936436",
"L. c #966A37",
"P. c #91673B",
"I. c #936B3C",
"U. c #996F3D",
"Y. c #95703D",
"T. c #9B733F",
"R. c #846340",
"E. c #846542",
"W. c #8A6541",
"Q. c #866945",
"!. c #8D6B43",
"~. c #876A48",
"^. c #8C6B49",
"/. c #926C42",
"(. c #996E40",
"). c #936F49",
"_. c #8F714C",
"`. c #947144",
"'. c #9B7445",
"]. c #94724A",
"[. c #9C754A",
"{. c #9C7A4C",
"}. c #9C7B53",
"|. c #A07644",
" X c #A27A45",
".X c #A07749",
"XX c #A47B4C",
"oX c #A87E4C",
"OX c #A37D51",
"+X c #A97F52",
"@X c #AC844F",
"#X c #A48454",
"$X c #AD8454",
"%X c #A88855",
"&X c #A4825A",
"*X c #AF8658",
"=X c #A98958",
"-X c #B58C56",
";X c #B28A59",
":X c #B88F59",
">X c #BA925E",
/* pixels */
"V ' 9 E ` # R [ [ [ i 6.n I c @ > / ~ 7.( f | 1 7 b y h ^ *.f.w & ~ ^ ] G * b n n b 1 H t.$.} 8 i H H F F % ` e.c c = c >.;.] u ",
"l r.N <.p.3 x *.[ ;.s } z I ~ 7 > q.) 7.| f ` 1 8 b y c z ] k.d @ G n { G = b c L } i c  .$.+.6 8 H H F D = `  .F D & b t.>.{ 7 ",
"x G.,.J.F.4 I &.[ :.n } z I ^ u * w.7.| / i ( < 7 b 5 D z ] p.f - S k ` h & ^ H ` } i c ' @.+.i i H L F b = ^ ` L K 5 H a.i.I 7 ",
"l V.<.].p.3 E I ;.y.` } I n G - O / 7.8.G i  .# k n y / z ] f.i - G i ( g % H C L L 7 H @.' 6.c 7 H L L f % ` [ v F % ` S.a.n 7 ",
"q 1.=.{.Q.3 T t $.d.L { I ^ ( - * / ) 8.D a  .5 c b y { n } f.f & ~ f { h @ c z ` n 1 } #.Z 6.v 1 n } H a % } *.k H y 5.F.u.z 5 ",
"N H.>.#X}.4 t I ' 6.v L ] | | u > _ / / K a { s c c y K n ` e.k 7 4.z { h @ b n T ` 7 L O.Z u.v # H  .( f & }  .k v u 6.F.1.v 5 ",
"R !.2.#X&Xz T T ' } s L } | { p : _ G f c a { b v c 5 { [ T  .s u 0.( { G @ ^ T L } 6 C ....C.k 3 ^ e.} b 7 [ x v c i e.G.o.x 6 ",
"r S.2.%X}.n =.e  .+.6 c ^ ) K u : J / c u a  .c H n 6 5.y.T  .s - 0.{ | | & b v V } i C ..%.W.l 4 ` e. .H f [ k v s i 6.G.X.x 6 ",
"4 2.Z.%X#Xr &.z [ :.6 L L H G u > ( G b i i  .k k H a } e.R } k & ~ ^ 9.G & H k C  .s C %.%.W.l 8 ] r.5.] 7 T x L L 5 ` V.Y C 6 ",
"9 Z.2.%X}.w T t T e.6 F { K ( y : D h z D i } v k H i (  .` [ k % ( ^ ] h = | ` [ 6.k } %.X.C.v e ] r.6.] f  .;.L L 5 } V.R L 8 ",
"U Y.2.%X].w I x T  .i F { ^ ( % % p 7 n L c ` k c H i F [ ' +.k 1 ( ` ` f & }  .:.y.k  .%.o.V.V w  .r.r.| 7 $.u.V L < O.J.! ' v ",
"Y {.Z.#X!.w E z T ' 6 c ] z H @ & f 7 n } c L n z ` f F [ ' +.q 7 ( ^  .c # H +.u.$.s } b.1.H.T x p.V.E.5.4 >.a.v L 6 6./.X.} L ",
"=.#XZ.Y._.e &.t ' } 6 v } z ~ & 5 z z ' } k ' x k n i k ] T :.k & F L +.H = ` y.:.@.4 [ 1.1.H.' x k.u.F. .4 i.V.V } i  .!.X. .` ",
"=.`.2.#X].r i.I '  .i v | z G = 5 ( `  .{ k [ I k v 7 i ' ' p.v # K ` } b 7 } y...@.8 [ X.o.M.' r p.$.V. .7 >.1.C ` 1 ` J.o.} C ",
"&.Y.Z.#X].r a.T C r.s c | I b & 5 ` [ $.L s [ ` n n 6 i  .[ a.v 1 { ` ` b i } a.$.$.8  .X.X.N.' v G.$.G.;.8 1.! V L # C !.=.[ n ",
"U Y.2.#Xk.e >.C C j.v c *.` H 1 1 H  .r.L 8 } ' T L i c r.$.y.k 7 ^ n ` F 5 C N.,.$.8 X.o.o.V.` x V.[ N. .w u.[ V L & } '.=.' n ",
"U J.Z.#X&.z E x C W.V x V.[ ` = 5 c n ` ] i  .T I c 6 H j.$.V.n 3 ^ L L K 1 Y D.o.u.q } n.1.G.N N S.X.N.+.k ,.R v v <  ./.1.} L ",
"U a.2.T.&.w T Y Z C.C x N.[ ( = u G I |  .i *.` n ` 7 K e.;.r.n 4 ' F F b 7 ' /.1.1.8 ' B.D.J.x x N.o.V.:.e o.R V L < ` W.1.[ v ",
"w >.=.T.a.4 R ..N M.C T N.[ ( & - ~ ] >.L 1 t.[ n  .7 ` [ >.+.C w *.v L c 6 E `.n.1.9 C J./.!.x x N...W.y.e ,.' V O.5 L C.N. .v ",
"9 >.-.#XG.4 R @.M u.x [ S.T ` = 7 H z *.` i p.I ` d.i L  .1.$.` e *.n L H i W J.N.a.8 x H.(.).C U u.[ H.t.q $.[ C } 6 C B.1.@.C ",
"e <.v.XXG.3 E R Z 1.x r.S.' { = u ^ z *.' q j.C ` j.c H ;.>.r.' I &.I ^ { i X.H.M.u.8 N P.[.`.T E p.' V.6.8 [ R v P 6 x N.o.$.C ",
"e 1.2.'.J.3 ..R ..1.x a.G.' H = 7 I I >.H <  .Y ' p.v x u.1.1.Y U k.` H K 7 X.H.=.u.8 [ '.#X`.T [ W...a. .8 $.R C L < V B.-.$.v ",
"e 1.2.'.J.4 1...$.%.r i.D.[ ` = i H k [ C 6 T x ' u.z I u.N.u.N [ F.' ` H 7 *.H.1.2.4 $.[.*XI.I ' Q.:.a.} s $.Z P P 6 } n.B.%.l ",
"l 1.-.[./.4 u...o...e u.S.[ ( = i H n ;.L q T ' T r.k ' N.S.n.B T F.} 6.H 7 &.J.1.u.3 ;.[.;XD.x x G.$.r.` 7 $.N V } 6 r.b.K.1.l ",
"N $.b.(.`.e ,.R %.1.e N.J.T H u G H T ;.} s H.Y ' :.8 T H.I.1.r &.!.' ` K 5 R V.1.u.8 [ XX*XH.r x t.%.O.` q ' M V O.6 $.B.K.%.l ",
"l %.b.I.J.8 1...b.%.l V.G.T ( 5 b ` z [ } s V.' [ ;.6 x N.I.N.t &.`.' L c 5 R N.1.a.8 [ +X XI.R x r.%.} 5.k $.R P O.q $.D.L.1.N ",
"l %.-.U.H.9 %.R J.1.r >.=.T H u i { z  .} q >.T [ ' 2 x S.I.B.m &.`.[ L i 1 T N.M.V.8 [ +X|.U.o.N p...' } k X.[ O.P s O.I.'.1.V ",
"M %.o..XJ.q 1.Q C.1.N i.u.[ F u u ` k +.} n a.' [ T 2 ` J.{.H.m &.{.X.} a & U 1.V.N.2 ..*XU.(.R R W.Z ' n k R o...' q [ I.oX1.N ",
"C %.! oXP.q %.Q N.P.;.a.=.T i p u H z ;.L ` ^.;.X.[ 3 ` I.XXI.U ! ]...O.v < C N.C.u.6 ..oXL. XB =.).....x x ..%.' @.s ;.L.-X=.l ",
"V ..P +X/.9 ..M ../.[ X.U 8 5 a i ~ n p.n ` ).[ *.*.k  .].#XJ.t =./...O.F < C M.M.O.2 ..L.A.XXB X.!.%...` x 1.1.Z %.k a.T.:X=.r ",
"s ..o.+X/.9 %.M 0 M.[ >.T x i h 5 K ` k.L v W.Y E >.z +.{.#XH.r =.I.%.O.P < C 1.b.P 2 P K.m.U.B Q H.1...R x M.b.Z $.e S.oX>X2.U ",
"0 O.c.XXW.q H.....I.1.G.=.' H u : L ` j.n k F.[ T =.z [ {.%XI.B &.J.O.} 5.5 Y 1.M.o.< Z K.v.D.m ! /.%.%.C T H.m.P $.e a.$X>XS.[ ",
"0 X.N.XX!.r /.Y o.N.[ u...C H c 5 ^ x ,.I e /.=.N [ ` [ '. XY.U -.D.X.' 5.< C a.W.%.0 o.(.m.[.P m P.o.X.:.x /.D.' [ 4 p.@X:XD.U ",
"m n.v.OXp.x H.R 1.C.[ $.R C H i 7 H C 1.' x [.1.x &.I ] '.T.Y.U =.S.[ ` } 5 T a.M.u.l b.L.c.L.Z B (.%...$.x J.M...@.4 =.$X-XS.U ",
"N D.v.+X>.z u.B o.n.' @.C N L a & F T V.T w '.M.R 2.n T I.K.U.Y =.J.R } L 1 n G.u.a.r M.L.v.P.Z Y I.o... .r H.b.R @.2 [ @X@X2.Y ",
"Y B.b.[.u.x n.m Q 1.' :.C N ` c % n *.G.` 9 ).S.[ G.z T J.m.L.Y 2.`.[ ' H 5 T G.1.M.M m.U.m./.Z Y P.o...[ 4 V.N.C ..2 W  X X2.=.",
"X.H.b.(.;.r n.! o.N.' u.[ C L c & c ' a.[ e _.S.N j.k [ {.D.`.U =.`. .' L < ` p.[ u.Z N.U.v.(.Z Z P.o...' q H.V.Z ' 4 =.Y. XZ.=.",
"X.P.B.'.[ x 2.=.B.K.R :.o.' L f = b ' V.*.w F.u.Y p.w  .OXL.'.m <.{.*.{ ( 5  .p.` ;.C b.'.v./.l N /.o.N C e J.1.P } 3 >.K.T.N.=.",
"R P.H.I.*.t D.=.B.).[ $.X.[ H h 5 ( r.V.i.w p.2.R t.f [ {.D.T.U -.}.] n G f 9.i.' $.x =.U.m./.l l H.X.C C 8 M.1.P L 6 $.D.T.N.X.",
"..J.P.b.$.x P.X.m.XX1.$...X.b f = b [ t.t.8 u.;.T  .w  .{.P.`.U =.{.z z b c t.i.' t.l 1.Z.n.).T q V.%.O.` < X.,.C } 8 ..P.P.2.X.",
"T !.H.n.a.x 1.! B.'.$.V.' Y ^ b = G L  . .8 n [ ' ' & e.{.`.{.U [ #Xf n h u 9.>.{ i.q ;.J.Z.].r e V.Y O.{ 1 1.' Z L 8 } D.U.1...",
"N !.J.1.i.e =.-.H.[.1.^.[ T G G % b x I n w [ ;.T ` & *.OXP.'.U E ].w h h i 9. . .p.l p.Y.D.).q 4 V.P ' ` 1 >.X.C L 8 L B./.1.P ",
"z W.H.o.>.w =.=.S./.>._.' x c D + c ^ ' ^ 7 6.$.L n &  .&XH.'.t [ _.z f h h *. .e.d.e G.I.S.W.q 4 ^.} L H &  . .P } u x M.I.$.` ",
"x R.N.[ >.k X.! v.H.t._.x n h h * n *.t.| 7 r.' x n & { &XS.`.U [ _.^ n D > | 9.g.d.q N.S.n.C.6 s ^.@.` H 1 ;.;.} O.i n N.C.%.L ",
"x Q.a.=.*.w =.=.=.H.t.^.x z h g + ( e.r.] 8 g.C L n @ ^ #X2.Y.U E G.I ^ h % ( >.g.V.l j.N.v.a.2 i ~.6.} c & f.t.L 6.i n 1.2.+.H ",
"I _.u.k.*.7 ;.=.W S.>.Q.I w h , + b 5.i.5.u ' k ` H # { #X2.`.I U k.n G p & c ` 6.l.v a.D.2.1.2 i j. .L f & i.>.C 5.f k R 1.r.l ",
"z ~.;.F.[ 1 ;.W U Z.| E.T 7 h u * f ` i.9.8 n 8 ^ b & | ].>.`.U E k.I G y = f I 5.d.c r.H.=.1.k 7 l.} L f + {  .F } i f Y X.6.c ",
"c E.T Q.] & =.E I 2.` E. .3 h g * f ^  .( f n c b n & | _.=.`.U I k.b n % y b ( l.j.s %.D.=.t.` 5 l.} H c X n ] { H % f T C  .v ",
"k p.>.k.T & >.;.x <.} d. .f A > = d f 9.{ z | z I j & 7.~.*.!.&.z g.^ ~ u % ) 8.5.r.6 ` V.1.+.6 s s.` H v @ `  .( n y c [ x 5.H ",
"w t.<.k.` 1 t.>.t ;.H d.] f h = u i u } ) I 7.I ~ I & | z.[ J.I 7 8.~ ~ h X ~ 7.5.6.3 ` V.$.+.q v e.` n c @ F ^ ^ ^ y f } `  .c ",
"4 [ >.Q.` # >.>.x ;.z h.} h p > * u 7 ~ | ^ k.I 7.^ & ) k.>.!.z 7 x.g j G X ~ )  . .1 ` u... .s n | I n F @ z f ^ ^ 5 k { ' 5.i ",
"1 I *.Q.{ @ [ *.T  .s d.^ 7 u = @ u f ^ *.^ z.~ | ( - | j.>.!.x 7 z.f h S @ b d ` ` # n $.[ @.s k { I n b # i 7 ^ ( 7 c { {  .1 ",
"@ z  .Q.{ @ ` *.'  .s 9.b - u * @ u f b 7.b s.f ( c = { 9.:.).l 7 4.j j D + G j ` F # H @. .} i s ` ^ n f @ f i ( ( 5 c ^ ^ | & ",
"# n *.k.{ # T  .'  .c s.^ 7 u $ * u - h | z 5.f b f 5 H ` [ !.e d n I ) J + A ) } L # H %.@.@.6 i { ] ^ D % G k b F % G I x } 1 ",
"# H  .g.{ # I [ T [ k 5.h 7 u O * > - c | k 4.b ~ f y F b } ).l f c g ) J . j _ } H < H 6.%. .6 y H } b h % K f z G % K H z ( 1 ",
"# ` *.s.( # z T `  .i 9.i u g * ; g u ( 7.f ] K ) D y c i ` ^.k f ~ d ~ 3.% / |  .H < L  .+.O.y i b c & % + b h c b % { ` f ` 5 ",
"= ` ^ h.c = ^ z ' g.c H D j h $ * > d / 8.f 8.G D D u F i F E.4 i G d h _ $ S ~ ( n < { 6.} } % i c 8 d y . f u h G % 3.` i H 1 ",
"u ( n s.D 5 H ^ ` s.c K K h g O * g j / | 7 } G a D p D a H E.4 1 G u j J % g S F c % v  .} L 5 u ~ G b p % G f f h % { ( k H 5 ",
"i H G 9.h 5 z H I 9.i D D g p O O , g ~ ) 7 D a : A p a c ` h.i 5 G d S J o > u F i % a } } F y % D D h : @ A h i u % / ` c H i ",
"a F b 3.h = i c I  .i H D h , O O > d g G 7 f p y a p y a } s.8 & G g / J X , u F c % f 5.} F 5 % a f D y . h c u 5 % G { c b i ",
"y H D ( p % i k H { i H D h p ; O > , g D u c a p A y % p ) | & X ~ , / J o A g G D % h  .L H : % p h b p + h G u 5 % D { b G i ",
"y D f b a @ i c H L u G h g , O X > g g h < A A y A ; ; d ~ ( # X > g S J o S j D b @ c | F K = % p h h : $ D J > : % h { n F 7 ",
"y G i G h $ h c n G y D d , : O O > > h h = a % y A ; y d I I * * d > ~ S X , , a i @ h { b H % $ h d h : o G K 5 > @ u ( b H 5 ",
"y D 7 K G % h k n c y c u > ; o ; ; : S D u a . y A ; y d ~ ) - & g > S , X , g h 5 $ h F F D : : u 7 p :   g G = u . 5 ( c H = "
};
